<svg xmlns="http://www.w3.org/2000/svg" width="100" height="100" id="amazon">
  <g fill-rule="evenodd" transform="translate(92.78 -288.088)">
    <rect width="63.214" height="40.714" x="-73.879" y="317.729" fill="#f9f9f9" stroke="#000" stroke-linecap="round" stroke-linejoin="round" stroke-width=".8" rx="3.599" ry="3.599"></rect>
    <path fill="#f90" d="M-35.535 345.016c-3.268 2.408-8.005 3.693-12.083 3.693-5.718 0-10.866-2.115-14.76-5.632-.307-.277-.033-.654.335-.438 4.203 2.445 9.4 3.916 14.768 3.916 3.62 0 7.603-.749 11.265-2.303.553-.235 1.016.362.475.764"></path>
    <path fill="#f90" d="M-34.177 343.461c-.416-.533-2.761-.252-3.814-.127-.32.04-.37-.24-.08-.44 1.867-1.315 4.932-.936 5.29-.495.357.443-.094 3.515-1.849 4.981-.269.225-.526.106-.406-.193.394-.984 1.278-3.19.86-3.726"></path>
    <path fill="#221f1f" d="M-37.917 333.613v-1.277c0-.194.147-.323.323-.323h5.72c.184 0 .331.132.331.323v1.094c-.002.183-.157.423-.43.803l-2.965 4.232c1.101-.027 2.264.137 3.263.7.225.128.286.314.303.497v1.364c0 .186-.205.403-.42.29-1.76-.922-4.098-1.022-6.044.01-.199.108-.407-.107-.407-.293v-1.295c0-.208.003-.563.21-.879l3.435-4.925h-2.989c-.183 0-.33-.13-.33-.32m-20.868 7.972h-1.74a.329.329 0 0 1-.312-.296v-8.932c0-.179.15-.321.336-.321h1.623a.328.328 0 0 1 .316.299v1.167h.031c.424-1.128 1.22-1.654 2.292-1.654 1.089 0 1.77.526 2.259 1.654.421-1.128 1.378-1.654 2.404-1.654.73 0 1.527.3 2.014.976.551.752.438 1.843.438 2.8l-.002 5.638c0 .179-.15.323-.335.323H-51.2a.33.33 0 0 1-.314-.323v-4.734c0-.377.035-1.317-.049-1.674-.13-.6-.519-.77-1.023-.77-.42 0-.861.282-1.04.733-.179.45-.162 1.204-.162 1.71v4.735c0 .179-.149.323-.335.323h-1.738a.329.329 0 0 1-.313-.323l-.003-4.734c0-.996.164-2.463-1.072-2.463-1.25 0-1.202 1.43-1.202 2.463v4.734c0 .179-.15.323-.335.323m32.167-9.737c2.583 0 3.98 2.217 3.98 5.037 0 2.725-1.544 4.886-3.98 4.886-2.536 0-3.916-2.218-3.916-4.981 0-2.781 1.397-4.942 3.916-4.942m.015 1.823c-1.283 0-1.364 1.748-1.364 2.837 0 1.092-.017 3.422 1.35 3.422 1.348 0 1.412-1.88 1.412-3.025 0-.754-.032-1.655-.26-2.37-.196-.621-.585-.864-1.138-.864m7.314 7.914h-1.733a.33.33 0 0 1-.313-.323l-.003-8.935a.33.33 0 0 1 .336-.291h1.613c.152.007.276.11.31.25v1.366h.032c.488-1.222 1.17-1.804 2.372-1.804.781 0 1.543.281 2.032 1.052.455.715.455 1.917.455 2.78v5.624a.334.334 0 0 1-.335.281h-1.745a.33.33 0 0 1-.309-.281v-4.852c0-.977.113-2.406-1.089-2.406-.423 0-.813.284-1.006.715-.245.545-.277 1.089-.277 1.691v4.81a.335.335 0 0 1-.34.323m-23.189-4.266c0 .678.018 1.243-.325 1.845-.277.49-.717.79-1.204.79-.669 0-1.06-.508-1.06-1.26 0-1.483 1.329-1.752 2.59-1.752v.377m1.755 4.242a.363.363 0 0 1-.412.041c-.577-.48-.683-.702-.998-1.16-.955.974-1.633 1.266-2.87 1.266-1.466 0-2.604-.904-2.604-2.713 0-1.412.764-2.374 1.856-2.844.945-.416 2.264-.49 3.272-.605v-.225c0-.414.032-.903-.213-1.26-.21-.321-.616-.453-.976-.453-.664 0-1.254.34-1.398 1.045-.03.156-.144.31-.303.318l-1.687-.181c-.142-.032-.301-.147-.26-.365.387-2.046 2.238-2.663 3.893-2.663.847 0 1.953.225 2.621.866.847.791.766 1.846.766 2.994v2.712c0 .816.338 1.173.656 1.614.11.156.135.345-.007.462-.355.296-.986.847-1.334 1.156l-.002-.005m-24.572-4.242c0 .678.017 1.243-.326 1.845-.276.49-.714.79-1.204.79-.668 0-1.058-.508-1.058-1.26 0-1.483 1.33-1.752 2.588-1.752v.377m1.755 4.242a.363.363 0 0 1-.411.041c-.578-.48-.68-.702-.999-1.16-.955.974-1.63 1.266-2.869 1.266-1.464 0-2.604-.904-2.604-2.713 0-1.412.766-2.374 1.855-2.844.945-.416 2.264-.49 3.273-.605v-.225c0-.414.032-.903-.21-1.26-.214-.321-.62-.453-.977-.453-.664 0-1.256.34-1.4 1.045-.03.156-.145.31-.302.318l-1.689-.181c-.142-.032-.298-.147-.26-.365.39-2.046 2.238-2.663 3.893-2.663.847 0 1.953.225 2.622.866.847.791.766 1.846.766 2.994v2.712c0 .816.338 1.173.656 1.614.112.156.137.345-.005.462a73.86 73.86 0 0 0-1.334 1.156l-.005-.005"></path>
  </g>
</svg>
